# xmcd
#
# Track frame offsets: 
#        150
#        29085
#        52357
#        82377
#        99892
#        123247
#        145805
#        161670
#        210162
#        228690
#
# Disc length: 3257 seconds
#
# Revision: 0
# Processed by: cddbd v1.5.1PL0 Copyright (c) Steve Scherf et al.
# Submitted via: ExactAudioCopy v0.95b2
#
DISCID=8e0cb70a
DTITLE=Philip Sayce Group - Philip Sayce Group
DYEAR=1997
DGENRE=Bluesrock
TTITLE0=grey city storm
TTITLE1=morning star
TTITLE2=backwater blues
TTITLE3=you can run
TTITLE4=were you there
TTITLE5=already gone
TTITLE6=walk a mile
TTITLE7=wrong place wrong time (live)
TTITLE8=brown sugar
TTITLE9=propaganda
EXTD=PHILIP SAYCE is one of the best blues/rock axeslingers in the wor
EXTD=ld \nand the PHILIP SAYCE GROUP disc is HIGHLY recommended to fan
EXTD=s \nof JIMI HENDRIX, STEVIE RAY VAUGHAN, ROBIN TROWER, \nFRANK MA
EXTD=RINO, GARY MOORE, WALTER TROUT, WARREN HAYNES, \nDOYLE BRAMHALL, 
EXTD=IAN MOORE, JOE BONAMASSA, INDIGENOUS, \nCHRIS DUARTE, KENNY WAYNE
EXTD=SHEPHERD, etc. and any other\n killer blues/rock axeslingers fro
EXTD=m around the globe\n
EXTT0=
EXTT1=
EXTT2=
EXTT3=
EXTT4=
EXTT5=
EXTT6=
EXTT7=
EXTT8=
EXTT9=
PLAYORDER=
